<svg width="35" height="36" viewBox="0 0 35 36" fill="none" xmlns="http://www.w3.org/2000/svg">
<path d="M34.4998 17.505C34.4998 26.8967 26.8886 34.51 17.4999 34.51C8.11126 34.51 0.5 26.8967 0.5 17.505C0.5 8.11326 8.11126 0.5 17.4999 0.5C26.8886 0.5 34.4998 8.11326 34.4998 17.505Z" stroke="#00CB74"/>
<path fill-rule="evenodd" clip-rule="evenodd" d="M20.3892 8.52875C23.0957 8.52875 24.6485 9.90712 24.6485 12.3084V24.2417C24.6485 24.7425 24.3979 25.1932 23.9766 25.4452C23.5569 25.6981 23.051 25.703 22.6265 25.4567L17.871 22.6926L13.0715 25.4625C12.864 25.5823 12.6366 25.6431 12.4084 25.6431C12.173 25.6431 11.9376 25.5782 11.7238 25.4485C11.3033 25.1965 11.0527 24.7458 11.0527 24.2458V12.1582C11.0527 9.8513 12.6063 8.52875 15.3152 8.52875H20.3892ZM20.3892 9.76017H15.3152C13.2813 9.76017 12.2496 10.5663 12.2496 12.1582V24.2458C12.2496 24.323 12.2927 24.3648 12.3286 24.3862C12.3645 24.4092 12.4212 24.4256 12.4866 24.3878L17.5789 21.4488C17.7608 21.3446 17.9835 21.3438 18.1662 21.4497L23.2146 24.3837C23.2808 24.4231 23.3375 24.4051 23.3734 24.3829C23.4093 24.3607 23.4516 24.3189 23.4516 24.2417L23.4513 12.2148C23.4453 11.5083 23.3124 9.76017 20.3892 9.76017ZM20.7393 14.0525C21.0696 14.0525 21.3377 14.3283 21.3377 14.6682C21.3377 15.0081 21.0696 15.2839 20.7393 15.2839H14.9001C14.5698 15.2839 14.3017 15.0081 14.3017 14.6682C14.3017 14.3283 14.5698 14.0525 14.9001 14.0525H20.7393Z" fill="#00CB74"/>
</svg>
