<svg width="44" height="44" viewBox="0 0 44 44" fill="none" xmlns="http://www.w3.org/2000/svg">
<circle cx="22" cy="22" r="22" fill="#31795A" fill-opacity="0.2"/>
<circle cx="22.5" cy="21.5" r="17.5" fill="#31795A"/>
<path d="M18.2205 19.092C18.2658 17.8793 18.6625 16.9443 19.4105 16.287C20.1585 15.6297 21.1728 15.301 22.4535 15.301C23.3035 15.301 24.0288 15.4483 24.6295 15.743C25.2415 16.0377 25.7005 16.44 26.0065 16.95C26.3238 17.46 26.4825 18.0323 26.4825 18.667C26.4825 19.415 26.2955 20.027 25.9215 20.503C25.5475 20.9677 25.1112 21.285 24.6125 21.455V21.523C25.2585 21.7383 25.7685 22.0953 26.1425 22.594C26.5165 23.0927 26.7035 23.733 26.7035 24.515C26.7035 25.2177 26.5392 25.841 26.2105 26.385C25.8932 26.9177 25.4228 27.337 24.7995 27.643C24.1875 27.949 23.4565 28.102 22.6065 28.102C21.2465 28.102 20.1585 27.7677 19.3425 27.099C18.5378 26.4303 18.1128 25.4217 18.0675 24.073H20.8895C20.9008 24.5717 21.0425 24.9683 21.3145 25.263C21.5865 25.5463 21.9832 25.688 22.5045 25.688C22.9465 25.688 23.2865 25.5633 23.5245 25.314C23.7738 25.0533 23.8985 24.7133 23.8985 24.294C23.8985 23.75 23.7228 23.359 23.3715 23.121C23.0315 22.8717 22.4818 22.747 21.7225 22.747H21.1785V20.384H21.7225C22.3005 20.384 22.7652 20.2877 23.1165 20.095C23.4792 19.891 23.6605 19.534 23.6605 19.024C23.6605 18.616 23.5472 18.2987 23.3205 18.072C23.0938 17.8453 22.7822 17.732 22.3855 17.732C21.9548 17.732 21.6318 17.8623 21.4165 18.123C21.2125 18.3837 21.0935 18.7067 21.0595 19.092H18.2205Z" fill="white"/>
</svg>
