<svg width="44" height="44" viewBox="0 0 44 44" fill="none" xmlns="http://www.w3.org/2000/svg">
<circle cx="22" cy="22" r="22" fill="#31795A" fill-opacity="0.2"/>
<circle cx="22.5" cy="21.5" r="17.5" fill="#31795A"/>
<path d="M17.807 25.671C18.1924 25.365 18.368 25.2233 18.334 25.246C19.4447 24.328 20.3174 23.5743 20.952 22.985C21.598 22.3957 22.142 21.778 22.584 21.132C23.026 20.486 23.247 19.857 23.247 19.245C23.247 18.7803 23.1394 18.4177 22.924 18.157C22.7087 17.8963 22.3857 17.766 21.955 17.766C21.5244 17.766 21.1844 17.9303 20.935 18.259C20.697 18.5763 20.578 19.0297 20.578 19.619H17.773C17.7957 18.6557 17.9997 17.851 18.385 17.205C18.7817 16.559 19.2974 16.083 19.932 15.777C20.578 15.471 21.292 15.318 22.074 15.318C23.4227 15.318 24.437 15.6637 25.117 16.355C25.8084 17.0463 26.154 17.9473 26.154 19.058C26.154 20.2707 25.7404 21.3983 24.913 22.441C24.0857 23.4723 23.0317 24.481 21.751 25.467H26.341V27.83H17.807V25.671Z" fill="white"/>
</svg>
