<svg width="44" height="44" viewBox="0 0 44 44" fill="none" xmlns="http://www.w3.org/2000/svg">
<circle cx="22" cy="22" r="22" fill="#31795A" fill-opacity="0.2"/>
<circle cx="22.5" cy="21.5" r="17.5" fill="#31795A"/>
<path d="M25.9747 18.123H20.6707V20.469C20.8973 20.2197 21.2147 20.0157 21.6227 19.857C22.0307 19.6983 22.4727 19.619 22.9487 19.619C23.7987 19.619 24.5013 19.8117 25.0567 20.197C25.6233 20.5823 26.037 21.081 26.2977 21.693C26.5583 22.305 26.6887 22.968 26.6887 23.682C26.6887 25.008 26.3147 26.062 25.5667 26.844C24.8187 27.6147 23.7647 28 22.4047 28C21.498 28 20.7103 27.847 20.0417 27.541C19.373 27.2237 18.8573 26.7873 18.4947 26.232C18.132 25.6767 17.9337 25.0363 17.8997 24.311H20.7387C20.8067 24.6623 20.971 24.957 21.2317 25.195C21.4923 25.4217 21.8493 25.535 22.3027 25.535C22.8353 25.535 23.232 25.365 23.4927 25.025C23.7533 24.685 23.8837 24.2317 23.8837 23.665C23.8837 23.1097 23.7477 22.6847 23.4757 22.39C23.2037 22.0953 22.807 21.948 22.2857 21.948C21.9003 21.948 21.583 22.0443 21.3337 22.237C21.0843 22.4183 20.92 22.662 20.8407 22.968H18.0357V15.573H25.9747V18.123Z" fill="white"/>
</svg>
