<svg width="16" height="16" viewBox="0 0 16 16" fill="none" xmlns="http://www.w3.org/2000/svg">
<path fill-rule="evenodd" clip-rule="evenodd" d="M5.86242 7.89124C5.87534 7.90272 5.88754 7.91349 5.89975 7.92641C6.67438 8.72043 7.10153 9.77217 7.10153 10.8885V13.7487L8.70679 12.8743C8.83314 12.8053 8.91139 12.6704 8.91139 12.5218V10.8799C8.91139 9.76786 9.33424 8.71971 10.1017 7.93L13.5742 4.23635C13.7989 3.99728 13.9224 3.68355 13.9224 3.3526V2.68063C13.9224 2.34752 13.6597 2.07687 13.338 2.07687H2.66197C2.33962 2.07687 2.07687 2.34752 2.07687 2.68063V3.3526C2.07687 3.68355 2.20035 3.99728 2.42506 4.23563L5.86242 7.89124ZM6.84811 15C6.70309 15 6.55951 14.9612 6.42885 14.8837C6.17615 14.7329 6.02467 14.4666 6.02467 14.1708V10.8885C6.02467 10.0737 5.72099 9.30624 5.16748 8.71827C5.15097 8.70463 5.13446 8.68955 5.1201 8.67376L1.6411 4.97436C1.22758 4.535 1 3.95851 1 3.3526V2.68063C1 1.75381 1.74591 1 2.66197 1H13.338C14.2534 1 14.9993 1.75381 14.9993 2.68063V3.3526C14.9993 3.9578 14.7717 4.53356 14.3596 4.97364L10.8799 8.67376C10.3034 9.26819 9.98826 10.05 9.98826 10.8799V12.5218C9.98826 13.0645 9.69463 13.5613 9.22225 13.8198L7.24009 14.8995C7.11661 14.9663 6.98236 15 6.84811 15Z" fill="#244034" stroke="#244034" stroke-width="0.5"/>
</svg>
