<svg width="42" height="42" viewBox="0 0 42 42" fill="none" xmlns="http://www.w3.org/2000/svg">
<rect width="42" height="42" rx="10" fill="#00BF58"/>
<path d="M15.08 17.32C14.32 18.12 13.94 19.52 13.94 21.52C13.94 23.52 14.32 24.92 15.08 25.72C15.6133 26.28 16.3 26.56 17.14 26.56C17.98 26.56 18.6667 26.28 19.2 25.72C19.96 24.92 20.34 23.52 20.34 21.52C20.34 19.52 19.96 18.12 19.2 17.32C18.6667 16.76 17.98 16.48 17.14 16.48C16.3 16.48 15.6133 16.76 15.08 17.32ZM13.16 26.22C12.3867 25.0733 12 23.5067 12 21.52C12 19.5333 12.3867 17.9667 13.16 16.82C14.08 15.4333 15.4067 14.74 17.14 14.74C18.8733 14.74 20.2 15.4333 21.12 16.82C21.8933 17.9667 22.28 19.5333 22.28 21.52C22.28 23.5067 21.8933 25.0733 21.12 26.22C20.2 27.6067 18.8733 28.3 17.14 28.3C15.4067 28.3 14.08 27.6067 13.16 26.22ZM29.7475 28H27.8275V18.86H24.6875V17.48C25.5675 17.4667 26.3075 17.24 26.9075 16.8C27.5075 16.3467 27.8808 15.76 28.0275 15.04H29.7475V28Z" fill="white"/>
</svg>
