<svg width="42" height="42" viewBox="0 0 42 42" fill="none" xmlns="http://www.w3.org/2000/svg">
<rect width="42" height="42" rx="10" fill="#00BF58"/>
<path d="M13.08 17.32C12.32 18.12 11.94 19.52 11.94 21.52C11.94 23.52 12.32 24.92 13.08 25.72C13.6133 26.28 14.3 26.56 15.14 26.56C15.98 26.56 16.6667 26.28 17.2 25.72C17.96 24.92 18.34 23.52 18.34 21.52C18.34 19.52 17.96 18.12 17.2 17.32C16.6667 16.76 15.98 16.48 15.14 16.48C14.3 16.48 13.6133 16.76 13.08 17.32ZM11.16 26.22C10.3867 25.0733 10 23.5067 10 21.52C10 19.5333 10.3867 17.9667 11.16 16.82C12.08 15.4333 13.4067 14.74 15.14 14.74C16.8733 14.74 18.2 15.4333 19.12 16.82C19.8933 17.9667 20.28 19.5333 20.28 21.52C20.28 23.5067 19.8933 25.0733 19.12 26.22C18.2 27.6067 16.8733 28.3 15.14 28.3C13.4067 28.3 12.08 27.6067 11.16 26.22ZM25.1052 19.7L23.1452 19.46C23.1318 19.34 23.1252 19.1667 23.1252 18.94C23.1252 17.78 23.5318 16.7933 24.3452 15.98C25.1585 15.1533 26.2452 14.74 27.6052 14.74C28.9518 14.74 30.0185 15.1267 30.8052 15.9C31.5918 16.66 31.9852 17.6 31.9852 18.72C31.9852 20.36 31.1718 21.6933 29.5452 22.72L26.9852 24.36C26.0652 24.9467 25.5385 25.5533 25.4052 26.18H32.0652V28H22.9852C23.0118 26.9067 23.2585 25.9467 23.7252 25.12C24.2052 24.2933 24.9852 23.5333 26.0652 22.84L28.2252 21.44C29.4118 20.68 30.0052 19.78 30.0052 18.74C30.0052 18.1 29.7918 17.56 29.3652 17.12C28.9385 16.68 28.3385 16.46 27.5652 16.46C26.7518 16.46 26.1318 16.7067 25.7052 17.2C25.2785 17.6933 25.0652 18.3333 25.0652 19.12C25.0652 19.24 25.0785 19.4333 25.1052 19.7Z" fill="white"/>
</svg>
