<svg width="42" height="42" viewBox="0 0 42 42" fill="none" xmlns="http://www.w3.org/2000/svg">
<rect width="42" height="42" rx="10" fill="#00BF58"/>
<path d="M14.08 17.32C13.32 18.12 12.94 19.52 12.94 21.52C12.94 23.52 13.32 24.92 14.08 25.72C14.6133 26.28 15.3 26.56 16.14 26.56C16.98 26.56 17.6667 26.28 18.2 25.72C18.96 24.92 19.34 23.52 19.34 21.52C19.34 19.52 18.96 18.12 18.2 17.32C17.6667 16.76 16.98 16.48 16.14 16.48C15.3 16.48 14.6133 16.76 14.08 17.32ZM12.16 26.22C11.3867 25.0733 11 23.5067 11 21.52C11 19.5333 11.3867 17.9667 12.16 16.82C13.08 15.4333 14.4067 14.74 16.14 14.74C17.8733 14.74 19.2 15.4333 20.12 16.82C20.8933 17.9667 21.28 19.5333 21.28 21.52C21.28 23.5067 20.8933 25.0733 20.12 26.22C19.2 27.6067 17.8733 28.3 16.14 28.3C14.4067 28.3 13.08 27.6067 12.16 26.22ZM27.6875 21.98L26.7275 20.36L30.5475 16.84H24.3475V15.04H33.1475V16.8L29.4475 20.22C30.5008 20.22 31.4275 20.5667 32.2275 21.26C33.0408 21.9533 33.4475 22.92 33.4475 24.16C33.4475 25.3067 33.0275 26.2867 32.1875 27.1C31.3475 27.9133 30.2008 28.32 28.7475 28.32C27.3208 28.32 26.1742 27.9267 25.3075 27.14C24.4542 26.34 23.9942 25.3733 23.9275 24.24L25.8475 23.8C25.8875 24.64 26.1742 25.32 26.7075 25.84C27.2542 26.3467 27.9275 26.6 28.7275 26.6C29.5808 26.6 30.2475 26.3733 30.7275 25.92C31.2208 25.4533 31.4675 24.88 31.4675 24.2C31.4675 23.4133 31.2075 22.8133 30.6875 22.4C30.1675 21.9867 29.5475 21.78 28.8275 21.78C28.4408 21.78 28.0608 21.8467 27.6875 21.98Z" fill="white"/>
</svg>
