<svg width="119" height="90" viewBox="0 0 119 90" fill="none" xmlns="http://www.w3.org/2000/svg">
<circle cx="15.5" cy="45.5" r="15.5" fill="#00BF58" fill-opacity="0.41"/>
<circle cx="30.5" cy="45.5" r="15.5" fill="#00BF58"/>
<path d="M63.768 58L62.94 61.744L60.168 64.624L56.82 66.748L56.136 65.308L58.296 63.652L59.808 61.384L60.24 58L60.276 52.42V45.508L59.952 41.764L57.468 41.872L57.288 40.612L62.256 39.64L64.056 40.036L63.804 44.932L63.66 48.532L63.768 58ZM59.736 32.512L61.392 31.72L63.12 32.296L63.912 34.24L62.904 35.824L61.212 36.508L59.628 35.536L58.872 33.916L59.736 32.512ZM67.7907 51.16V46.444L69.9147 42.16L73.9827 39.46L78.9147 39.28L83.4147 41.98L85.7547 46.3L85.3227 52.888L82.6587 57.136L77.0787 58.72L72.3987 57.82L68.9787 54.724L67.7907 51.16ZM71.7507 45.22L71.5707 49.252L72.0027 53.428L73.5507 56.128L77.3667 57.064L80.8947 55.516L81.9387 49.9L81.5787 45.22L80.2467 42.232L77.6187 40.9L74.0187 41.296L71.7507 45.22ZM93.0689 41.548L93.3209 41.8L97.0649 39.748L100.989 39.64L104.805 42.556L106.317 48.568L105.237 53.932L102.645 57.208L97.4609 58.72L90.6569 57.82L89.3969 56.56L89.6849 44.68L89.6489 36.508L89.4689 32.908L86.9129 33.016L86.7329 31.756L91.7009 30.784L93.5009 31.18L93.0689 41.548ZM92.9969 52.492L93.2849 55.84L97.9649 56.884L101.529 54.652L102.573 50.692L102.429 45.94L99.8729 42.232L97.6409 41.692L93.0689 43.528L92.9969 52.492ZM110.826 32.512L112.482 31.72L114.21 32.296L115.002 34.24L113.994 35.824L112.302 36.508L110.718 35.536L109.962 33.916L110.826 32.512ZM114.894 44.932L114.678 48.532L114.786 52.024L114.93 56.2L117.558 56.92L117.378 58.18L113.13 58L108.738 58.18L108.81 56.92L111.186 56.2L111.366 52.42L111.294 45.508L111.114 41.764L108.558 41.872L108.378 40.612L113.346 39.64L115.146 40.036L114.894 44.932Z" fill="#083C20"/>
</svg>
