<svg width="89" height="13" viewBox="0 0 89 13" fill="none" xmlns="http://www.w3.org/2000/svg">
<path fill-rule="evenodd" clip-rule="evenodd" d="M7.2077 0.482931L8.51126 3.08713C8.63901 3.34279 8.88561 3.52007 9.17158 3.56109L12.0877 3.98084C12.8082 4.08486 13.0949 4.95806 12.5734 5.45839L10.4647 7.48461C10.2575 7.68386 10.1632 7.97029 10.2122 8.25159L10.7098 11.1122C10.8324 11.8198 10.0792 12.3597 9.43526 12.0249L6.82889 10.6734C6.57338 10.5408 6.26736 10.5408 6.01111 10.6734L3.40474 12.0249C2.76077 12.3597 2.0076 11.8198 2.1309 11.1122L2.62781 8.25159C2.67683 7.97029 2.5825 7.68386 2.37527 7.48461L0.266558 5.45839C-0.254863 4.95806 0.0318444 4.08486 0.752327 3.98084L3.66842 3.56109C3.95439 3.52007 4.20173 3.34279 4.32949 3.08713L5.6323 0.482931C5.95466 -0.160977 6.88534 -0.160977 7.2077 0.482931Z" fill="#FFCC4A"/>
<path fill-rule="evenodd" clip-rule="evenodd" d="M26.0477 0.482931L27.3513 3.08713C27.479 3.34279 27.7256 3.52007 28.0116 3.56109L30.9277 3.98084C31.6482 4.08486 31.9349 4.95806 31.4134 5.45839L29.3047 7.48461C29.0975 7.68386 29.0032 7.97029 29.0522 8.25159L29.5498 11.1122C29.6724 11.8198 28.9192 12.3597 28.2753 12.0249L25.6689 10.6734C25.4134 10.5408 25.1074 10.5408 24.8511 10.6734L22.2447 12.0249C21.6008 12.3597 20.8476 11.8198 20.9709 11.1122L21.4678 8.25159C21.5168 7.97029 21.4225 7.68386 21.2153 7.48461L19.1066 5.45839C18.5851 4.95806 18.8718 4.08486 19.5923 3.98084L22.5084 3.56109C22.7944 3.52007 23.0417 3.34279 23.1695 3.08713L24.4723 0.482931C24.7947 -0.160977 25.7253 -0.160977 26.0477 0.482931Z" fill="#FFCC4A"/>
<path fill-rule="evenodd" clip-rule="evenodd" d="M44.8877 0.482931L46.1912 3.08713C46.319 3.34279 46.5656 3.52007 46.8516 3.56109L49.7677 3.98084C50.4881 4.08486 50.7749 4.95806 50.2534 5.45839L48.1447 7.48461C47.9375 7.68386 47.8432 7.97029 47.8922 8.25159L48.3898 11.1122C48.5124 11.8198 47.7592 12.3597 47.1152 12.0249L44.5089 10.6734C44.2534 10.5408 43.9474 10.5408 43.6911 10.6734L41.0847 12.0249C40.4408 12.3597 39.6876 11.8198 39.8109 11.1122L40.3078 8.25159C40.3568 7.97029 40.2625 7.68386 40.0553 7.48461L37.9466 5.45839C37.4251 4.95806 37.7118 4.08486 38.4323 3.98084L41.3484 3.56109C41.6344 3.52007 41.8817 3.34279 42.0095 3.08713L43.3123 0.482931C43.6347 -0.160977 44.5653 -0.160977 44.8877 0.482931Z" fill="#FFCC4A"/>
<path fill-rule="evenodd" clip-rule="evenodd" d="M63.7277 0.482931L65.0312 3.08713C65.159 3.34279 65.4056 3.52007 65.6916 3.56109L68.6077 3.98084C69.3281 4.08486 69.6149 4.95806 69.0934 5.45839L66.9847 7.48461C66.7775 7.68386 66.6832 7.97029 66.7322 8.25159L67.2298 11.1122C67.3524 11.8198 66.5992 12.3597 65.9552 12.0249L63.3489 10.6734C63.0934 10.5408 62.7874 10.5408 62.5311 10.6734L59.9247 12.0249C59.2808 12.3597 58.5276 11.8198 58.6509 11.1122L59.1478 8.25159C59.1968 7.97029 59.1025 7.68386 58.8953 7.48461L56.7865 5.45839C56.2651 4.95806 56.5518 4.08486 57.2723 3.98084L60.1884 3.56109C60.4744 3.52007 60.7217 3.34279 60.8495 3.08713L62.1523 0.482931C62.4746 -0.160977 63.4053 -0.160977 63.7277 0.482931Z" fill="#FFCC4A"/>
<path fill-rule="evenodd" clip-rule="evenodd" d="M82.5677 0.482931L83.8712 3.08713C83.999 3.34279 84.2456 3.52007 84.5316 3.56109L87.4477 3.98084C88.1681 4.08486 88.4548 4.95806 87.9334 5.45839L85.8247 7.48461C85.6175 7.68386 85.5232 7.97029 85.5722 8.25159L86.0698 11.1122C86.1924 11.8198 85.4392 12.3597 84.7952 12.0249L82.1889 10.6734C81.9334 10.5408 81.6273 10.5408 81.3711 10.6734L78.7647 12.0249C78.1208 12.3597 77.3676 11.8198 77.4909 11.1122L77.9878 8.25159C78.0368 7.97029 77.9425 7.68386 77.7353 7.48461L75.6265 5.45839C75.1051 4.95806 75.3918 4.08486 76.1123 3.98084L79.0284 3.56109C79.3144 3.52007 79.5617 3.34279 79.6895 3.08713L80.9923 0.482931C81.3146 -0.160977 82.2453 -0.160977 82.5677 0.482931Z" fill="#FFCC4A"/>
</svg>
