<svg width="77" height="77" viewBox="0 0 77 77" fill="none" xmlns="http://www.w3.org/2000/svg">
<rect opacity="0.2" x="1" y="1" width="75" height="75" rx="37.5" stroke="#C3C3C3"/>
<path fill-rule="evenodd" clip-rule="evenodd" d="M40.1926 27C43.2854 27 45.8073 29.2032 45.841 31.9213L46.1149 31.9224C49.5674 31.9224 52.3749 34.3919 52.3749 37.4279V43.4956C52.3749 46.5305 49.5674 49 46.1149 49H34.26C30.8087 49 28 46.5305 28 43.4956V37.4279C28 34.3919 30.8087 31.9224 34.26 31.9224L34.515 31.9214L34.5229 31.7075C34.6014 30.4596 35.1854 29.3148 36.1876 28.4421C37.2601 27.506 38.7001 27.0385 40.1926 27ZM46.1149 33.5724L45.8412 33.5714L45.8413 35.3116C45.8413 35.767 45.4213 36.1366 44.9038 36.1366C44.3863 36.1366 43.9663 35.767 43.9663 35.3116L43.9662 33.5714H36.3887L36.3888 35.3116C36.3888 35.767 35.9689 36.1366 35.4514 36.1366C34.9339 36.1366 34.5139 35.767 34.5139 35.3116L34.5137 33.5714L34.26 33.5724C31.8425 33.5724 29.875 35.3016 29.875 37.4279V43.4956C29.875 45.6208 31.8425 47.35 34.26 47.35H46.1149C48.5324 47.35 50.4999 45.6208 50.4999 43.4956V37.4279C50.4999 35.3016 48.5324 33.5724 46.1149 33.5724ZM40.1888 28.65C39.1751 28.6808 38.2251 28.9888 37.5076 29.6136C36.8005 30.2304 36.4042 31.0481 36.3893 31.9213L43.9637 31.9214L43.9599 31.7813C43.8448 30.038 42.1982 28.65 40.1888 28.65Z" fill="#009A42" stroke="#009A42" stroke-width="0.5"/>
</svg>
