<svg width="77" height="77" viewBox="0 0 77 77" fill="none" xmlns="http://www.w3.org/2000/svg">
<rect x="1" y="1.00024" width="75" height="75" rx="37.5" stroke="#EFEFEF"/>
<path d="M34.3313 45.0831C34.0178 45.0836 33.7151 44.9687 33.4808 44.7604L27 38.9994L33.8407 32.9182C34.0957 32.7 34.4261 32.5907 34.7609 32.6136C35.0956 32.6366 35.408 32.7899 35.6309 33.0408C35.8537 33.2917 35.9692 33.62 35.9525 33.9551C35.9358 34.2903 35.7883 34.6055 35.5416 34.8329L30.8552 38.9994L35.1817 42.8443C35.3761 43.0168 35.5134 43.2443 35.5754 43.4966C35.6374 43.749 35.6212 44.0142 35.529 44.2571C35.4367 44.5001 35.2727 44.7092 35.0588 44.8567C34.8449 45.0042 34.5911 45.0832 34.3313 45.0831ZM45.7879 45.0806L52.6287 38.9994L46.1478 33.2384C45.8939 33.0128 45.5608 32.8974 45.2218 32.9174C44.8827 32.9375 44.5656 33.0914 44.34 33.3453C44.1145 33.5992 43.999 33.9323 44.0191 34.2714C44.0391 34.6104 44.193 34.9276 44.447 35.1531L48.7735 38.9994L44.0871 43.1645C43.833 43.39 43.6789 43.7073 43.6587 44.0465C43.6385 44.3856 43.7539 44.7189 43.9795 44.973C44.205 45.2271 44.5223 45.3811 44.8614 45.4013C45.2006 45.4215 45.5339 45.3061 45.7879 45.0806ZM39.7964 46.8954L42.358 31.5259C42.3907 31.358 42.3895 31.1851 42.3543 31.0176C42.3192 30.8502 42.2508 30.6914 42.1533 30.5508C42.0557 30.4102 41.931 30.2905 41.7864 30.1989C41.6419 30.1073 41.4804 30.0456 41.3116 30.0175C41.1428 29.9893 40.9701 29.9953 40.8036 30.035C40.6372 30.0747 40.4804 30.1474 40.3425 30.2487C40.2045 30.35 40.0883 30.478 40.0007 30.625C39.9131 30.772 39.8558 30.935 39.8323 31.1046L37.2707 46.4741C37.2379 46.642 37.2392 46.8149 37.2743 46.9824C37.3095 47.1498 37.3778 47.3086 37.4754 47.4492C37.5729 47.5898 37.6977 47.7095 37.8422 47.8011C37.9868 47.8927 38.1482 47.9544 38.317 47.9825C38.4858 48.0107 38.6586 48.0047 38.825 47.965C38.9915 47.9253 39.1483 47.8526 39.2862 47.7513C39.4241 47.65 39.5403 47.522 39.6279 47.375C39.7156 47.228 39.7728 47.065 39.7964 46.8954Z" fill="#009A42"/>
</svg>
