<svg width="77" height="77" viewBox="0 0 77 77" fill="none" xmlns="http://www.w3.org/2000/svg">
<rect x="1" y="1" width="75" height="75" rx="37.5" stroke="#F0F0F0"/>
<path d="M28.12 49.7525L36.075 41.7975M46.0925 38.26L43.7112 45.4038C43.6732 45.5183 43.6082 45.622 43.5216 45.706C43.435 45.79 43.3294 45.8518 43.2137 45.8863L28.6162 50.225C28.4847 50.2641 28.345 50.2663 28.2123 50.2315C28.0796 50.1967 27.959 50.1261 27.8636 50.0275C27.7683 49.9289 27.7018 49.806 27.6714 49.6723C27.641 49.5385 27.6478 49.3989 27.6912 49.2688L32.4312 35.0513C32.4652 34.9492 32.5207 34.8556 32.5941 34.7769C32.6674 34.6982 32.7568 34.6362 32.8562 34.595L39.59 31.8225C39.7269 31.766 39.8775 31.7513 40.0227 31.7802C40.168 31.8091 40.3014 31.8804 40.4062 31.985L45.9112 37.4913C46.01 37.5899 46.0792 37.7141 46.1113 37.8499C46.1433 37.9857 46.1368 38.1277 46.0925 38.26V38.26Z" stroke="#009A42" stroke-width="2" stroke-linecap="round" stroke-linejoin="round"/>
<path d="M46.24 37.82L49.775 34.2837C50.2437 33.8149 50.507 33.1791 50.507 32.5162C50.507 31.8533 50.2437 31.2176 49.775 30.7487L47.125 28.0962C46.8929 27.864 46.6172 27.6797 46.3139 27.554C46.0105 27.4283 45.6853 27.3636 45.3569 27.3636C45.0285 27.3636 44.7034 27.4283 44.4 27.554C44.0966 27.6797 43.821 27.864 43.5888 28.0962L40.0538 31.6325M38.7263 39.145C38.5521 38.9709 38.3454 38.8328 38.1179 38.7386C37.8903 38.6445 37.6465 38.596 37.4002 38.5961C37.154 38.5961 36.9102 38.6447 36.6827 38.739C36.4552 38.8333 36.2485 38.9714 36.0744 39.1456C35.9003 39.3198 35.7623 39.5265 35.6681 39.7541C35.5739 39.9816 35.5255 40.2254 35.5255 40.4717C35.5256 40.7179 35.5741 40.9618 35.6684 41.1892C35.7627 41.4167 35.9009 41.6234 36.075 41.7975C36.4268 42.1491 36.9038 42.3465 37.4011 42.3464C37.8984 42.3463 38.3753 42.1486 38.7269 41.7969C39.0785 41.4451 39.2759 40.9681 39.2758 40.4708C39.2757 39.9735 39.078 39.4966 38.7263 39.145Z" stroke="#009A42" stroke-width="2" stroke-linecap="round" stroke-linejoin="round"/>
</svg>
