<svg width="77" height="77" viewBox="0 0 77 77" fill="none" xmlns="http://www.w3.org/2000/svg">
<rect opacity="0.2" x="1" y="1" width="75" height="75" rx="37.5" fill="white" stroke="#BFBFBF"/>
<path fill-rule="evenodd" clip-rule="evenodd" d="M48.7803 48.2575C49.2612 48.2575 49.6515 48.6478 49.6515 49.1287C49.6515 49.6096 49.2612 49.9999 48.7803 49.9999H40.3553C39.8744 49.9999 39.4841 49.6096 39.4841 49.1287C39.4841 48.6478 39.8744 48.2575 40.3553 48.2575H48.7803ZM43.3972 28.7593C43.4553 28.8046 45.3987 30.3146 45.3987 30.3146C46.1049 30.7351 46.6567 31.4867 46.8657 32.3764C47.0737 33.2569 46.9227 34.1653 46.4383 34.9331C46.435 34.9382 46.4318 34.9433 46.4206 34.9583L46.4119 34.9699C46.3332 35.0736 45.9915 35.5057 44.2665 37.667C44.2504 37.6953 44.2323 37.7218 44.2124 37.7476C44.1834 37.7856 44.1517 37.8205 44.1179 37.8523C44.0002 38.0005 43.876 38.1561 43.7453 38.3198L43.4806 38.6514C42.9343 39.3355 42.2863 40.1468 41.5176 41.109L41.123 41.6028C39.6389 43.4604 37.7382 45.8387 35.3033 48.8849C34.7702 49.5493 33.971 49.9361 33.1126 49.9466L28.8856 50H28.874C28.4709 50 28.1201 49.7235 28.026 49.3298L27.0747 45.2979C26.8784 44.4627 27.0735 43.6008 27.609 42.9318L38.5511 29.246C38.5558 29.2413 38.5592 29.2355 38.5639 29.2309C39.7638 27.7963 41.9337 27.5849 43.3972 28.7593ZM37.3311 33.5605L28.9692 44.0202C28.7706 44.2687 28.6974 44.5893 28.7706 44.8972L29.5616 48.2483L33.0917 48.2042C33.4274 48.2007 33.7375 48.0509 33.9431 47.7953C35.0019 46.4706 36.3326 44.8057 37.7007 43.0937L38.1847 42.4879L38.6696 41.8812C39.9526 40.2755 41.2202 38.689 42.2808 37.3611L37.3311 33.5605ZM39.9055 30.3425L38.4195 32.1991L43.3688 35.9986C44.3214 34.8054 44.9481 34.0195 45.006 33.9446C45.1965 33.6356 45.2709 33.1988 45.171 32.7783C45.0688 32.3474 44.8004 31.9815 44.4136 31.748C44.3312 31.6911 42.3739 30.1717 42.3135 30.1241C41.577 29.534 40.5026 29.6363 39.9055 30.3425Z" fill="#009A42"/>
</svg>
