<svg width="77" height="77" viewBox="0 0 77 77" fill="none" xmlns="http://www.w3.org/2000/svg">
<rect opacity="0.2" x="1" y="1.00024" width="75" height="75" rx="37.5" stroke="#CACACA"/>
<path d="M39.1233 30.0189L35.1198 25.3976C34.6582 24.8651 33.8121 24.8675 33.276 25.4047L29.9837 28.703C29.0038 29.684 28.7234 31.1408 29.2902 32.3089C32.6767 39.3206 38.3317 44.9835 45.3387 48.3798C46.5056 48.9467 47.9612 48.6662 48.9411 47.6852L52.2641 44.3562C52.8026 43.8177 52.8038 42.9668 52.2665 42.5053L47.6274 38.5231C47.1422 38.1065 46.3884 38.1609 45.902 38.6485L44.2878 40.2651C44.2052 40.3517 44.0964 40.4088 43.9782 40.4276C43.8599 40.4464 43.7388 40.4259 43.6334 40.3692C40.9949 38.8498 38.8062 36.6582 37.2902 34.0177C37.2334 33.9121 37.2129 33.7908 37.2317 33.6724C37.2505 33.5539 37.3076 33.4449 37.3943 33.3621L39.0038 31.7515C39.4914 31.2615 39.5446 30.5041 39.1233 30.0177V30.0189Z" stroke="#009A42" stroke-width="2" stroke-linecap="round" stroke-linejoin="round"/>
</svg>
