<svg width="77" height="77" viewBox="0 0 77 77" fill="none" xmlns="http://www.w3.org/2000/svg">
<rect opacity="0.2" x="1" y="1" width="75" height="75" rx="37.5" stroke="#C1C1C1"/>
<path d="M39.8334 43.1776C43.057 43.1776 45.8796 43.4445 47.8565 44.1447C48.8367 44.4918 49.5213 44.9157 49.9519 45.3857C50.3568 45.8275 50.5834 46.3571 50.5834 47.0652C50.5834 47.7712 50.3564 48.297 49.9509 48.7354C49.5188 49.2025 48.8316 49.623 47.8482 49.9664C45.8652 50.659 43.0412 50.9167 39.8334 50.9167C36.6105 50.9167 33.7879 50.6499 31.8107 49.9497C30.8305 49.6025 30.1457 49.1787 29.7149 48.7087C29.31 48.2668 29.0834 47.7372 29.0834 47.0292C29.0834 46.3232 29.3104 45.7973 29.7159 45.359C30.148 44.8919 30.8352 44.4714 31.8185 44.1279C33.8016 43.4354 36.6256 43.1776 39.8334 43.1776ZM39.8334 23.4167C43.5523 23.4167 46.5244 26.3887 46.5244 30.1033C46.5244 33.8182 43.5519 36.7914 39.8334 36.7914C36.1161 36.7914 33.1424 33.8181 33.1424 30.1033C33.1424 26.3889 36.1158 23.4167 39.8334 23.4167Z" stroke="#009A42" stroke-width="2.5"/>
</svg>
